<svg width="210" height="34" viewBox="0 0 210 34" fill="none" xmlns="http://www.w3.org/2000/svg">
<g clip-path="url(#clip0_2404_12)">
<mask id="mask0_2404_12" style="mask-type:luminance" maskUnits="userSpaceOnUse" x="0" y="0" width="210" height="34">
<path d="M210 0H0V34H210V0Z" fill="white"></path>
</mask>
<g mask="url(#mask0_2404_12)">
<path fill-rule="evenodd" clip-rule="evenodd" d="M140.005 15.7491C137.998 15.7491 136.654 14.2736 136.654 11.8038C136.654 9.39809 137.998 7.87451 139.843 7.87451C141.803 7.87451 142.823 9.55847 142.823 11.6434V11.8038H137.431C137.431 13.7443 138.338 15.0915 140.038 15.0915C140.977 15.0915 141.948 14.6104 142.693 13.9368L142.806 14.6425C142.11 15.2679 141.106 15.7491 140.005 15.7491ZM137.447 11.1783H142.029C141.981 9.70281 141.187 8.49998 139.843 8.49998C138.516 8.49998 137.625 9.51036 137.447 11.1783Z" fill="#FFFFFF"></path>
<path fill-rule="evenodd" clip-rule="evenodd" d="M149.688 15.5888L149.51 14.5784C148.716 15.268 147.777 15.7492 146.822 15.7492C145.527 15.7492 144.507 15.1076 144.507 13.7444C144.507 12.0605 145.818 11.1463 149.477 10.8095V10.152C149.477 9.09346 148.846 8.58024 147.793 8.58024C146.919 8.58024 146.029 8.8208 145.17 9.25382L145.073 8.54816C145.948 8.16326 146.822 7.89062 147.826 7.89062C149.38 7.89062 150.238 8.67646 150.238 10.1199V15.5888H149.688ZM149.477 11.435C146.32 11.7718 145.284 12.4454 145.284 13.6803C145.284 14.6426 145.98 15.0916 146.838 15.0916C147.648 15.0916 148.635 14.6105 149.477 13.8888V11.435Z" fill="#FFFFFF"></path>
<path d="M152.942 15.5887V4.24998L153.687 4.0896V15.5887H152.942Z" fill="#FFFFFF"></path>
<path d="M158.658 15.717C157.573 15.717 156.86 15.2679 156.86 14.0009V8.67641H155.678V8.0349H156.86V5.34056L157.621 5.18018V8.0349H159.5L159.597 8.67641H157.621V13.8726C157.621 14.7547 157.978 15.0594 158.82 15.0594C159.062 15.0594 159.402 14.9953 159.597 14.9472L159.71 15.5566C159.5 15.6368 159.079 15.717 158.658 15.717Z" fill="#FFFFFF"></path>
<path d="M166.85 15.5887V10.3283C166.85 9.1896 166.3 8.56413 165.215 8.56413C164.373 8.56413 163.483 9.04526 162.527 9.92734V15.5887H161.766V4.24998L162.527 4.0896V9.15753C163.45 8.37168 164.292 7.87451 165.296 7.87451C166.867 7.87451 167.611 8.74055 167.611 10.2321V15.5887H166.85Z" fill="#FFFFFF"></path>
<path d="M133.642 30.5839L132.881 20.5763L128.704 30.648H128.056L123.879 20.5763L123.118 30.5839H122.357L123.28 19.4697H124.235L128.396 29.6216L132.574 19.4697H133.513L134.419 30.5839H133.642Z" fill="#FFFFFF"></path>
<path d="M123.15 4.65082L123.911 14.6424L128.089 4.58667H128.736L132.914 14.6424L133.675 4.65082H134.419L133.513 15.749H132.557L128.396 5.59705L124.219 15.749H123.28L122.357 4.65082H123.15Z" fill="#FFFFFF"></path>
<path fill-rule="evenodd" clip-rule="evenodd" d="M141.835 30.5841L141.657 29.5576C140.864 30.2633 139.908 30.7444 138.953 30.7444C137.674 30.7444 136.654 30.1029 136.654 28.7237C136.654 27.0397 137.949 26.1416 141.625 25.8048V25.1312C141.625 24.0727 140.993 23.5595 139.924 23.5595C139.05 23.5595 138.16 23.8001 137.318 24.2331L137.221 23.5275C138.079 23.1426 138.953 22.8699 139.957 22.8699C141.527 22.8699 142.369 23.6558 142.369 25.0992V30.5841H141.835ZM141.625 26.4303C138.467 26.7671 137.431 27.4246 137.431 28.6595C137.431 29.6218 138.127 30.0869 138.985 30.0869C139.795 30.0869 140.799 29.5897 141.625 28.868V26.4303Z" fill="#FFFFFF"></path>
<path d="M150.044 30.584V25.3075C150.044 24.1689 149.493 23.5434 148.409 23.5434C147.567 23.5434 146.692 24.0245 145.721 24.9066V30.584H144.96V23.0142H145.51L145.705 24.1528C146.644 23.3509 147.486 22.8538 148.49 22.8538C150.06 22.8538 150.821 23.7358 150.821 25.2434V30.584H150.044Z" fill="#FFFFFF"></path>
<path fill-rule="evenodd" clip-rule="evenodd" d="M158.091 30.5841L157.913 29.5576C157.119 30.2633 156.18 30.7444 155.225 30.7444C153.93 30.7444 152.91 30.1029 152.91 28.7237C152.91 27.0397 154.205 26.1416 157.88 25.8048V25.1312C157.88 24.0727 157.249 23.5595 156.197 23.5595C155.322 23.5595 154.416 23.8001 153.574 24.2331L153.476 23.5275C154.335 23.1426 155.225 22.8699 156.229 22.8699C157.783 22.8699 158.625 23.6558 158.625 25.0992V30.5841H158.091ZM157.88 26.4303C154.739 26.7671 153.687 27.4246 153.687 28.6595C153.687 29.6218 154.383 30.0869 155.258 30.0869C156.067 30.0869 157.055 29.5897 157.88 28.868V26.4303Z" fill="#FFFFFF"></path>
<path fill-rule="evenodd" clip-rule="evenodd" d="M163.742 33.4387C161.799 33.4387 160.342 32.7491 160.342 31.4821C160.342 30.7283 160.973 29.9906 162.187 29.4132C161.75 29.1887 161.54 28.916 161.54 28.6113C161.54 28.2104 161.799 27.9377 162.284 27.633C161.459 27.2321 160.892 26.4462 160.892 25.3877C160.892 23.816 162.204 22.8538 163.628 22.8538C164.373 22.8538 165.037 23.0783 165.539 23.4953L167.417 22.8858L167.563 23.7198L165.928 23.8962C166.251 24.2972 166.446 24.8104 166.446 25.3877C166.446 26.9755 165.15 27.9377 163.661 27.9377C163.402 27.9377 163.159 27.9217 162.932 27.8575C162.495 28.0981 162.317 28.2745 162.317 28.467C162.317 28.8038 162.657 28.9481 164.098 29.2208L164.697 29.333C166.446 29.6698 167.304 30.167 167.304 31.2255C167.304 32.5887 165.717 33.4387 163.742 33.4387ZM162.884 29.6858C161.685 30.1991 161.119 30.7764 161.119 31.45C161.119 32.3642 162.317 32.8292 163.806 32.8292C165.426 32.8292 166.543 32.1717 166.543 31.3217C166.543 30.6321 165.96 30.3113 164.389 30.0066L163.79 29.8943C163.418 29.8302 163.143 29.75 162.884 29.6858ZM163.628 23.4472C162.43 23.4472 161.669 24.2651 161.669 25.3877C161.669 26.4783 162.43 27.3443 163.661 27.3443C164.924 27.3443 165.685 26.5104 165.685 25.3877C165.685 24.3132 164.859 23.4472 163.628 23.4472Z" fill="#FFFFFF"></path>
<path fill-rule="evenodd" clip-rule="evenodd" d="M172.015 30.7443C170.008 30.7443 168.648 29.2528 168.648 26.7991C168.648 24.3774 170.008 22.8538 171.854 22.8538C173.813 22.8538 174.833 24.5377 174.833 26.6387V26.7991H169.441C169.441 28.7236 170.348 30.0868 172.048 30.0868C172.971 30.0868 173.958 29.5896 174.703 28.916L174.816 29.6217C174.12 30.2632 173.1 30.7443 172.015 30.7443ZM169.457 26.1736H174.039C173.991 24.6821 173.181 23.4792 171.854 23.4792C170.526 23.4792 169.635 24.4896 169.457 26.1736Z" fill="#FFFFFF"></path>
<path d="M187.025 30.584V25.3075C187.025 24.1689 186.507 23.5434 185.406 23.5434C184.596 23.5434 183.738 24.0085 182.783 24.8745V30.584H182.022V25.3075C182.022 24.1689 181.52 23.5434 180.419 23.5434C179.609 23.5434 178.735 24.0085 177.779 24.8585V30.584H177.019V23.0142H177.569L177.763 24.1047C178.686 23.3349 179.512 22.8538 180.5 22.8538C181.698 22.8538 182.378 23.3349 182.653 24.217C183.608 23.383 184.466 22.8538 185.503 22.8538C187.089 22.8538 187.786 23.7198 187.786 25.2113V30.584H187.025Z" fill="#FFFFFF"></path>
<path fill-rule="evenodd" clip-rule="evenodd" d="M193.242 30.7443C191.218 30.7443 189.874 29.2528 189.874 26.7991C189.874 24.3774 191.218 22.8538 193.08 22.8538C195.023 22.8538 196.043 24.5377 196.043 26.6387V26.7991H190.651C190.651 28.7236 191.558 30.0868 193.274 30.0868C194.197 30.0868 195.169 29.5896 195.914 28.916L196.027 29.6217C195.331 30.2632 194.327 30.7443 193.242 30.7443ZM190.668 26.1736H195.25C195.201 24.6821 194.408 23.4792 193.08 23.4792C191.736 23.4792 190.846 24.4896 190.668 26.1736Z" fill="#FFFFFF"></path>
<path d="M203.329 30.584V25.3075C203.329 24.1689 202.779 23.5434 201.694 23.5434C200.836 23.5434 199.961 24.0245 199.006 24.9066V30.584H198.245V23.0142H198.796L198.99 24.1528C199.913 23.3509 200.755 22.8538 201.775 22.8538C203.345 22.8538 204.09 23.7358 204.09 25.2434V30.584H203.329Z" fill="#FFFFFF"></path>
<path d="M208.85 30.7123C207.766 30.7123 207.053 30.2632 207.053 28.9802V23.6557H205.855V23.0142H207.053V20.3198L207.814 20.1594V23.0142H209.676L209.773 23.6557H207.814V28.8519C207.814 29.734 208.17 30.0547 209.012 30.0547C209.255 30.0547 209.595 29.9906 209.773 29.9425L209.887 30.5519C209.692 30.6321 209.271 30.7123 208.85 30.7123Z" fill="#FFFFFF"></path>
<path fill-rule="evenodd" clip-rule="evenodd" d="M82.7533 30.6642C80.5998 30.6642 79.0617 29.2529 79.0617 26.5426C79.0617 24.0246 80.5513 22.4529 82.5914 22.4529C84.8096 22.4529 85.9267 24.2171 85.9267 26.3982V26.6388H80.1627C80.1951 28.5793 81.1827 29.702 82.8342 29.702C83.919 29.702 84.8743 29.2369 85.7325 28.5473L85.9106 29.5416C85.0848 30.2152 84.0324 30.6642 82.7533 30.6642ZM80.1951 25.7727H84.7934C84.68 24.3614 83.9028 23.335 82.5752 23.335C81.3608 23.335 80.4217 24.185 80.1951 25.7727Z" fill="#FFFFFF"></path>
<path fill-rule="evenodd" clip-rule="evenodd" d="M83.158 15.6209C81.0046 15.6209 79.4503 14.2256 79.4503 11.5152C79.4503 8.99724 80.9399 7.42554 82.9799 7.42554C85.1981 7.42554 86.3153 9.18969 86.3153 11.3709V11.5954H80.5513C80.5836 13.552 81.5713 14.6746 83.2228 14.6746C84.3238 14.6746 85.2791 14.2095 86.121 13.5199L86.2991 14.5143C85.4896 15.1718 84.421 15.6209 83.158 15.6209ZM80.5836 10.7454H85.1819C85.0686 9.31799 84.3076 8.30762 82.9638 8.30762C81.7656 8.30762 80.8103 9.15762 80.5836 10.7454Z" fill="#FFFFFF"></path>
<path fill-rule="evenodd" clip-rule="evenodd" d="M60.9599 15.6209C58.8065 15.6209 57.2521 14.2256 57.2521 11.5152C57.2521 8.99724 58.7417 7.42554 60.7818 7.42554C63.0162 7.42554 64.1172 9.18969 64.1172 11.3709V11.5954H58.3531C58.3855 13.552 59.3732 14.6746 61.0247 14.6746C62.1257 14.6746 63.0809 14.2095 63.9229 13.5199L64.101 14.5143C63.2914 15.1718 62.2228 15.6209 60.9599 15.6209ZM58.3855 10.7454H62.9838C62.8867 9.31799 62.1095 8.30762 60.7656 8.30762C59.5675 8.30762 58.6122 9.15762 58.3855 10.7454Z" fill="#FFFFFF"></path>
<path fill-rule="evenodd" clip-rule="evenodd" d="M47.424 11.5312C47.424 14.1293 45.8049 15.6209 43.7163 15.6209C41.6276 15.6209 40.057 14.1293 40.057 11.5312C40.057 8.91705 41.66 7.42554 43.7163 7.42554C45.8373 7.42554 47.424 8.91705 47.424 11.5312ZM46.3392 11.5312C46.3392 9.60667 45.2544 8.35573 43.7163 8.35573C42.1943 8.35573 41.1257 9.55856 41.1257 11.5312C41.1257 13.4558 42.2267 14.6907 43.7163 14.6907C45.2544 14.6907 46.3392 13.5039 46.3392 11.5312Z" fill="#FFFFFF"></path>
<path d="M41.4657 5.66124C41.4657 5.4581 41.5412 5.28168 41.6924 5.132C41.8435 4.98231 42.0216 4.90747 42.2267 4.90747C42.4318 4.90747 42.6099 4.98231 42.761 5.132C42.9121 5.28168 42.9877 5.4581 42.9877 5.66124C42.9877 5.86438 42.9121 6.0408 42.761 6.19049C42.6099 6.34017 42.4318 6.41501 42.2267 6.41501C42.0216 6.41501 41.8435 6.34017 41.6924 6.19049C41.5412 6.0408 41.4657 5.86438 41.4657 5.66124Z" fill="#FFFFFF"></path>
<path d="M44.4934 5.66124C44.4934 5.4581 44.569 5.28168 44.7201 5.132C44.8712 4.98231 45.0493 4.90747 45.2544 4.90747C45.4595 4.90747 45.6376 4.98231 45.7887 5.132C45.9399 5.28168 46.0154 5.4581 46.0154 5.66124C46.0154 5.86438 45.9399 6.0408 45.7887 6.19049C45.6376 6.34017 45.4595 6.41501 45.2544 6.41501C45.0493 6.41501 44.8712 6.34017 44.7201 6.19049C44.569 6.0408 44.4934 5.86438 44.4934 5.66124Z" fill="#FFFFFF"></path>
<path d="M89.1812 10.2001V15.4605H88.0802V7.82648L89.1488 7.60196V9.20573C89.7317 8.32365 90.6546 7.45762 91.9661 7.42554L92.1604 8.45196C90.8489 8.54818 89.7155 9.15762 89.1812 10.2001Z" fill="#FFFFFF"></path>
<path d="M88.7926 25.2275V30.4878H87.6754V22.8539L88.7602 22.6293V24.2331C89.3431 23.351 90.266 22.485 91.5775 22.4529L91.7556 23.4954C90.4441 23.5756 89.3269 24.185 88.7926 25.2275Z" fill="#FFFFFF"></path>
<path d="M61.219 25.2275V30.4878H60.1018V22.8539L61.1704 22.6293V24.2331C61.7695 23.351 62.6924 22.485 64.0038 22.4529L64.182 23.4954C62.8705 23.5756 61.7533 24.185 61.219 25.2275Z" fill="#FFFFFF"></path>
<path d="M66.983 10.2001V15.4605H65.882V7.82648L66.9507 7.60196V9.20573C67.5497 8.32365 68.4726 7.45762 69.7679 7.42554L69.9622 8.45196C68.6507 8.54818 67.5173 9.15762 66.983 10.2001Z" fill="#FFFFFF"></path>
<path fill-rule="evenodd" clip-rule="evenodd" d="M96.2729 18.4595C94.2166 18.4595 92.6461 17.7699 92.6461 16.4067C92.6461 15.6048 93.2614 14.9312 94.4595 14.3378C94.0547 14.0812 93.8766 13.7926 93.8766 13.5039C93.8766 13.1029 94.1357 12.7661 94.6538 12.4454C93.7795 12.0124 93.1966 11.1944 93.1966 10.1039C93.1966 8.43592 94.589 7.42554 96.1434 7.42554C96.9206 7.42554 99.8188 7.42554 99.8188 7.42554L99.9969 8.24347H98.3454C98.9445 8.83686 99.1388 9.5746 99.1388 10.1039C99.1388 11.7718 97.7463 12.7822 96.1758 12.7822C95.9329 12.7822 95.7062 12.7661 95.4634 12.718C95.1234 12.8944 94.9614 13.1029 94.9614 13.2793C94.9614 13.6001 95.2853 13.7124 96.7425 13.985L97.3254 14.0973C99.0902 14.418 100.045 14.9312 100.045 16.0859C100.045 17.6095 98.313 18.4595 96.2729 18.4595ZM95.3338 14.6746C94.2328 15.1718 93.7309 15.7171 93.7309 16.3426C93.7309 17.1605 94.7833 17.6256 96.3377 17.6256C97.9568 17.6256 98.9931 17.0001 98.9931 16.2303C98.9931 15.6048 98.4911 15.2841 97.0825 15.0114L96.3053 14.8831C95.9005 14.8029 95.6253 14.7548 95.3338 14.6746ZM96.1434 8.24347C95.01 8.24347 94.2814 9.06139 94.2814 10.1359C94.2814 11.1463 95.01 11.9642 96.1758 11.9642C97.3254 11.9642 98.054 11.1624 98.054 10.1039C98.054 9.06139 97.2768 8.24347 96.1434 8.24347Z" fill="#FFFFFF"></path>
<path d="M35.0378 15.5888C33.791 15.5888 32.7386 15.2841 31.9614 14.8831L32.1234 13.7124C32.8358 14.1614 33.9044 14.5784 35.0863 14.5784C36.4464 14.5784 37.4665 13.8086 37.4665 12.5095C37.4665 11.3869 36.8998 10.8256 35.1349 10.0558C32.9167 9.09346 32.1072 8.35572 32.1072 6.75195C32.1072 5.01987 33.532 3.84912 35.4426 3.84912C36.5274 3.84912 37.3855 4.10572 37.9846 4.45855L37.8227 5.59723C37.175 5.16421 36.3655 4.87553 35.394 4.87553C34.0339 4.87553 33.2729 5.67742 33.2729 6.6878C33.2729 7.71421 33.8234 8.21138 35.6045 8.99723C37.7579 9.92742 38.6322 10.7614 38.6322 12.4293C38.6322 14.402 37.0617 15.5888 35.0378 15.5888Z" fill="#FFFFFF"></path>
<path fill-rule="evenodd" clip-rule="evenodd" d="M54.6777 15.4604L54.4834 14.3057C53.8843 15.0274 53.091 15.6208 51.9252 15.6208C50.1766 15.6208 48.7193 14.4019 48.7193 11.7557C48.7193 8.86889 50.4194 7.4736 52.3462 7.4736C53.1557 7.4736 53.8682 7.63398 54.4187 7.87455V3.72077L55.5197 3.52832V15.4604H54.6777ZM54.4187 8.88492C53.7872 8.58021 53.2043 8.41983 52.3786 8.41983C50.9537 8.41983 49.8527 9.49436 49.8527 11.7075C49.8527 13.616 50.7756 14.6425 52.0224 14.6425C52.9614 14.6425 53.7062 14.0811 54.4187 13.2311V8.88492Z" fill="#FFFFFF"></path>
<path fill-rule="evenodd" clip-rule="evenodd" d="M74.2691 15.5566C73.1681 15.5566 72.2776 15.3481 71.387 15.0434V3.72077L72.488 3.52832V8.62832C73.0547 8.00285 73.8319 7.42549 74.9491 7.42549C76.6654 7.42549 78.1388 8.67643 78.1388 11.3066C78.1388 14.1774 76.4711 15.5566 74.2691 15.5566ZM74.8196 8.40379C73.9291 8.40379 73.2005 8.96511 72.488 9.767V14.2896C72.99 14.4981 73.5081 14.6104 74.3176 14.6104C75.9044 14.6104 77.0054 13.6 77.0054 11.3547C77.0054 9.44625 76.0825 8.40379 74.8196 8.40379Z" fill="#FFFFFF"></path>
<path fill-rule="evenodd" clip-rule="evenodd" d="M47.0193 25.6443H45.5783V30.4877H44.4125V19.0208H47.2621C49.6422 19.0208 51.0833 20.1755 51.0833 22.2443C51.0833 24.5057 49.3832 25.6443 47.0193 25.6443ZM47.1974 20.0311H45.5783V24.634H47.0678C48.8327 24.634 49.9013 23.8802 49.9013 22.2764C49.9013 20.8009 48.9622 20.0311 47.1974 20.0311Z" fill="#FFFFFF"></path>
<path fill-rule="evenodd" clip-rule="evenodd" d="M57.2683 30.4878L57.074 29.4454C56.3454 30.119 55.4225 30.6642 54.2729 30.6642C52.8967 30.6642 51.909 29.9105 51.909 28.5152C51.909 26.6709 53.4148 25.8048 57.0092 25.452V24.9388C57.0092 23.8803 56.3778 23.4312 55.3739 23.4312C54.4187 23.4312 53.4958 23.7039 52.6376 24.1209L52.4757 23.1426C53.3986 22.7416 54.3053 22.4529 55.4387 22.4529C57.2035 22.4529 58.1102 23.2709 58.1102 24.8907V30.4878H57.2683ZM57.0092 26.318C53.8843 26.6388 53.01 27.3765 53.01 28.451C53.01 29.301 53.6091 29.7341 54.4348 29.7341C55.293 29.7341 56.2321 29.2529 57.0092 28.5473V26.318Z" fill="#FFFFFF"></path>
<path d="M68.4564 30.616C67.2097 30.616 66.4001 30.1349 66.4001 28.6915V23.5595H65.1696V22.6292H66.4001V19.9028L67.485 19.7104V22.6292H69.3146L69.4603 23.5595H67.485V28.5152C67.485 29.3171 67.8088 29.6538 68.6669 29.6538C68.9098 29.6538 69.2174 29.6058 69.3955 29.5737L69.5736 30.4877C69.3308 30.5519 68.926 30.616 68.4564 30.616Z" fill="#FFFFFF"></path>
<path d="M76.2768 30.4878V25.0671C76.2768 24.0567 75.8072 23.4473 74.8034 23.4473C73.9614 23.4473 73.1033 23.9605 72.229 24.8105V30.4878H71.1118V22.6293H71.9699L72.1642 23.7841C73.0385 23.0303 73.9453 22.4529 75.0139 22.4529C76.6006 22.4529 77.3778 23.351 77.3778 24.8746V30.4878H76.2768Z" fill="#FFFFFF"></path>
<path d="M95.4796 30.6482C94.4271 30.6482 93.3261 30.3114 92.6299 29.9265L92.8242 28.868C93.5528 29.3331 94.5243 29.702 95.5929 29.702C96.6939 29.702 97.3901 29.2369 97.3901 28.451C97.3901 27.6652 96.9206 27.3124 95.3338 26.8954C93.569 26.4463 92.8242 25.885 92.8242 24.5859C92.8242 23.351 93.8766 22.4529 95.5281 22.4529C96.4672 22.4529 97.2768 22.6775 97.9892 22.9982L97.8111 24.0407C97.0825 23.6558 96.2729 23.4312 95.4796 23.4312C94.3947 23.4312 93.8766 23.8963 93.8766 24.5378C93.8766 25.1793 94.3138 25.5161 95.6577 25.869C97.5358 26.3661 98.4426 26.9595 98.4426 28.3548C98.4426 29.7982 97.3092 30.6482 95.4796 30.6482Z" fill="#FFFFFF"></path>
<path fill-rule="evenodd" clip-rule="evenodd" d="M41.3847 30.3112L40.1866 30.5839L38.3408 28.7556C37.3693 30.0065 36.0578 30.6801 34.5358 30.6801C32.2691 30.6801 30.8604 29.4452 30.8604 27.5848C30.8604 25.8688 32.01 24.8263 33.6291 24.0886C32.8034 23.2386 32.3986 22.549 32.3986 21.4905C32.3986 20.0631 33.5806 18.8442 35.2321 18.8442C36.8836 18.8442 37.9522 19.9348 37.9522 21.2659C37.9522 22.3084 37.1912 23.1744 36.6893 23.5593C36.3331 23.832 35.6854 24.1848 35.3778 24.3131L38.1789 27.1197C38.616 26.2537 38.9399 25.1471 39.1342 23.7999L40.1866 24.0244C39.9167 25.5534 39.5012 26.831 38.9399 27.8574L41.3847 30.3112ZM34.6978 23.6556C34.9406 23.5433 35.2806 23.3829 35.734 23.1584C36.2521 22.9018 36.9645 22.1961 36.9645 21.2659C36.9645 20.3999 36.2359 19.8546 35.2321 19.8546C34.2282 19.8546 33.5482 20.5763 33.5482 21.4584C33.5482 22.2442 33.8882 22.8216 34.6978 23.6556ZM37.6122 28.0499L34.293 24.7782C32.852 25.3716 32.0262 26.2857 32.0262 27.4886C32.0262 28.7556 33.0463 29.7018 34.552 29.7018C35.7178 29.7018 36.8026 29.1886 37.6122 28.0499Z" fill="#FFFFFF"></path>
<path d="M13.3577 7.81034C13.0015 9.0292 12.8882 10.0236 12.7263 11.6755C12.7101 11.6915 12.6939 11.884 12.8882 11.916C13.0393 11.9374 13.1365 11.8786 13.1796 11.7396C14.2968 7.9226 17.0817 5.86977 18.5389 5.26034C18.6523 5.19618 18.7008 5.116 18.6685 5.01977C18.6361 4.85939 18.458 4.69901 18.2151 4.69901C18.1503 4.69901 18.091 4.70971 18.037 4.73109C18.0208 4.24996 17.4541 3.68864 16.7417 3.68864C16.569 3.68864 16.3963 3.72071 16.2236 3.78486V3.76883C16.2884 3.64052 16.2236 3.52826 16.1264 3.48015C16.1156 3.46946 16.0941 3.46411 16.0617 3.46411C15.9321 3.46411 15.754 3.57637 15.5112 3.76883C14.734 4.45845 13.8759 6.07826 13.3577 7.81034Z" fill="#FFFFFF"></path>
<path d="M22.3115 6.19064C21.8419 6.07838 21.3724 6.03027 20.919 6.03027C18.0694 6.03027 16.1426 8.11517 15.6407 8.91706C15.6407 8.91706 15.5598 9.02932 15.5921 9.12555C15.6137 9.15763 15.6569 9.17366 15.7217 9.17366L15.8512 9.15763C16.2074 9.09348 16.8227 8.99725 17.5675 8.99725C17.9237 8.99725 18.2961 9.02932 18.6523 9.07744C19.6076 9.20574 21.5181 9.70291 22.522 10.7293C22.5867 10.7935 22.6515 10.7935 22.7163 10.7293C22.7972 10.6331 22.8458 10.4407 22.8296 10.2322C22.7972 9.75102 22.6353 9.59065 22.4572 9.47838H22.441L22.4572 9.46234C22.6839 9.36612 22.8458 8.96517 22.8458 8.50008C22.8458 8.09914 22.7163 7.60197 22.3601 7.42555C22.6191 7.31329 22.8296 6.97649 22.7972 6.68782C22.7648 6.43121 22.6029 6.2548 22.3115 6.19064Z" fill="#FFFFFF"></path>
<path d="M18.4256 27.986C18.5227 27.986 18.6199 27.9539 18.6523 27.8897C18.7332 27.7614 18.717 27.601 18.5875 27.5048C17.3084 26.4303 16.4827 25.7086 15.7217 24.4897C15.6677 24.4149 15.6191 24.34 15.5759 24.2652C14.8797 23.1586 14.2159 22.1161 13.1958 18.4435C13.1311 18.2831 13.0177 18.251 12.953 18.251C12.9314 18.251 12.9098 18.251 12.8882 18.251C12.8882 18.251 12.6939 18.2992 12.7263 18.5558C12.7263 18.668 12.7425 18.8444 12.7587 19.0529C12.8558 20.2397 13.0663 22.6935 13.6492 24.618C14.3292 26.9114 14.7988 28.0341 15.754 29.5897C15.8026 29.686 15.8998 29.7501 15.9969 29.7501C16.0779 29.7501 16.1426 29.702 16.1912 29.6539C16.2398 29.5897 16.256 29.5256 16.2398 29.4454H16.256C16.855 29.5416 17.4703 29.3331 17.8751 28.9161C18.1503 28.6435 18.3123 28.3067 18.3123 27.986V27.9699C18.3446 27.9806 18.3824 27.986 18.4256 27.986Z" fill="#FFFFFF"></path>
<path d="M20.5143 23.3028C17.017 22.7415 15.8026 20.6887 14.8473 19.0368C14.6692 18.7321 14.5073 18.4594 14.3454 18.2189C14.3454 18.2189 14.2645 18.0906 14.1349 18.0906C14.1133 18.0906 14.0917 18.0959 14.0702 18.1066C14.054 18.1066 13.9082 18.1387 13.9568 18.3953V18.4594C14.3292 20.2075 15.0578 21.9075 16.1426 23.4953C16.9846 24.634 17.8427 25.7245 19.2028 26.5264C19.3485 26.6066 19.5266 26.5585 19.5914 26.4302C19.6399 26.35 19.6399 26.2538 19.5914 26.1896L19.5752 26.1736H19.5914C20.3362 25.8208 20.919 24.9547 20.5952 24.0085C20.7247 24.0085 20.8543 23.8481 20.8705 23.6877C20.8705 23.5915 20.8543 23.383 20.5143 23.3028Z" fill="#FFFFFF"></path>
<path d="M20.4657 22.2122C20.5305 22.2122 20.6006 22.2122 20.6762 22.2122C20.8705 22.1961 21.0162 22.0678 21.0486 21.9074C21.0971 21.7471 21.0324 21.5867 20.8867 21.4905V21.4744C21.2591 20.9452 21.2267 20.4801 21.1457 20.1754C21.0486 19.7905 20.7733 19.4537 20.4333 19.2933C20.5466 19.0848 20.5466 18.8603 20.4333 18.6518C20.32 18.4754 20.1257 18.3631 19.9152 18.3631C19.8504 18.3631 19.7803 18.3738 19.7047 18.3952C19.0247 18.5876 18.5227 18.7159 18.0694 18.7159C17.357 18.7159 16.7741 18.4273 15.6407 17.7697C15.5328 17.7163 15.441 17.6895 15.3655 17.6895C15.2899 17.6895 15.2251 17.7216 15.1712 17.7857C15.074 17.9141 15.1874 18.1546 15.1874 18.1546C15.2035 18.2027 17.0817 22.2122 20.4657 22.2122Z" fill="#FFFFFF"></path>
<path d="M22.6515 12.5093C22.6515 12.5093 22.6515 12.5147 22.6515 12.5254C22.6839 12.5254 22.7325 12.5414 22.781 12.5414C22.8134 12.5414 22.8404 12.5307 22.862 12.5093C22.9753 12.4131 22.9429 12.3008 22.8944 12.2527C22.7325 11.9961 22.5544 11.7716 22.0686 11.3867C20.6276 10.232 18.5713 9.81494 17.1303 9.81494C16.0131 9.81494 15.1226 10.0556 14.7664 10.4565C14.2159 11.1301 13.8921 12.1244 13.8597 12.6056L13.8435 12.6216C13.8435 12.6644 13.8435 12.7018 13.8435 12.7339V12.7499C13.8435 12.782 13.8273 12.8622 13.8759 12.9103C13.919 12.953 14 12.9584 14.1187 12.9263C14.1403 12.9156 14.1511 12.9103 14.1511 12.9103C15.074 12.5574 16.0293 12.381 17.0008 12.381C19.2837 12.381 21.2429 13.3593 22.2143 14.1933C22.2143 14.1933 22.3924 14.3537 22.5382 14.3537C22.5813 14.3537 22.6137 14.343 22.6353 14.3216C22.6353 14.3216 22.6839 14.2735 22.7001 14.2093C22.7001 14.1666 22.6785 14.1131 22.6353 14.049C22.862 13.9046 22.9267 13.632 22.9429 13.4395C22.9753 13.0867 22.8458 12.6857 22.6515 12.5093Z" fill="#FFFFFF"></path>
<path d="M22.6677 17.3527C22.7648 17.1068 22.7055 16.8021 22.4896 16.4386L22.4734 16.4225H22.4896C22.5112 16.4332 22.5328 16.4386 22.5544 16.4386C22.5867 16.4386 22.6191 16.4225 22.6515 16.4065C22.7163 16.3424 22.6839 16.2461 22.6677 16.1499C22.6353 16.0537 22.5705 15.9254 22.3924 15.6046C21.68 14.4178 19.2513 13.1348 16.7903 13.1348C16.0131 13.1348 15.3007 13.2631 14.653 13.5037C14.0702 13.7122 13.8597 13.9207 13.8111 13.9688C13.7355 14.0543 13.6816 14.1826 13.6492 14.3537C13.5358 14.8829 13.6168 16.5829 13.7787 17.1122C13.7787 17.1122 13.8273 17.2084 13.9082 17.2244C14.0054 17.2405 14.0702 17.1603 14.0702 17.1603C15.0578 15.9093 16.175 15.2839 17.3732 15.2839C19.3161 15.2839 21.0648 16.9197 21.9391 17.898C22.0524 18.0103 22.1172 18.0584 22.1658 18.0584C22.1981 18.0584 22.2305 18.0424 22.2467 18.0263C22.2899 17.9942 22.3169 17.9568 22.3277 17.914C22.3439 17.8339 22.2791 17.7537 22.2791 17.7537C22.2953 17.7376 22.5705 17.6414 22.6677 17.3527Z" fill="#FFFFFF"></path>
<path d="M6.36317 3.68869C5.65076 3.68869 5.08407 4.25001 5.06787 4.73114C5.0139 4.70976 4.95993 4.69907 4.90596 4.69907C4.66309 4.69907 4.4688 4.85944 4.43642 5.01982C4.42023 5.11605 4.4688 5.19624 4.56595 5.26039C6.03935 5.86982 8.82424 7.92265 9.94143 11.7396C9.97381 11.884 10.0709 11.9481 10.2166 11.916C10.4271 11.884 10.3948 11.6915 10.3948 11.6755C10.2166 10.0236 10.1033 9.02926 9.74713 7.81039C9.24521 6.07831 8.37088 4.4585 7.5937 3.76888C7.31845 3.52831 7.09178 3.41605 6.97844 3.4802C6.88129 3.52831 6.83272 3.64058 6.88129 3.76888L6.89748 3.78492H6.88129C6.70858 3.72077 6.53588 3.68869 6.36317 3.68869Z" fill="#FFFFFF"></path>
<path d="M7.46416 8.91706C6.96223 8.11517 5.03548 6.03027 2.20201 6.03027C1.73247 6.03027 1.26292 6.07838 0.809568 6.19064C0.518127 6.2548 0.340023 6.43121 0.307641 6.68782C0.29145 6.97649 0.485744 7.31329 0.744803 7.42555C0.388597 7.60197 0.259067 8.09914 0.275258 8.50008C0.275258 8.96517 0.43717 9.36612 0.663847 9.46234V9.47838C0.485744 9.59065 0.307641 9.75102 0.275258 10.2322C0.259067 10.4407 0.307641 10.6331 0.388597 10.7293C0.453362 10.7935 0.534318 10.7935 0.582891 10.7293C1.60294 9.70291 3.49731 9.20574 4.46878 9.07744C4.8088 9.02932 5.1812 8.99725 5.55359 8.99725C6.2822 8.99725 6.89747 9.09348 7.26986 9.15763L7.39939 9.17366C7.46416 9.17366 7.50194 9.15763 7.51273 9.12555C7.54511 9.02932 7.46416 8.91706 7.46416 8.91706Z" fill="#FFFFFF"></path>
<path d="M6.91363 29.6539C6.96221 29.702 7.04316 29.7501 7.12412 29.7501C7.22127 29.7501 7.30222 29.686 7.36699 29.5897C8.32227 28.0341 8.79181 26.9114 9.47184 24.618C10.0385 22.6935 10.249 20.2397 10.3462 19.0529C10.3624 18.8444 10.3786 18.668 10.3948 18.5558C10.4271 18.2992 10.2328 18.251 10.2166 18.251C10.1951 18.251 10.1789 18.251 10.1681 18.251C10.1033 18.251 9.97377 18.2831 9.90901 18.4435C8.88896 22.1161 8.24131 23.1586 7.5289 24.2652C7.48572 24.34 7.44255 24.4149 7.39937 24.4897C6.63838 25.7086 5.81263 26.4303 4.51733 27.5048C4.40399 27.601 4.37161 27.7614 4.45257 27.8897C4.50114 27.9539 4.5821 27.986 4.69544 27.986C4.72782 27.986 4.7602 27.9806 4.79258 27.9699H4.80878V27.986C4.80878 28.3067 4.9545 28.6435 5.22975 28.9161C5.65072 29.3331 6.26598 29.5416 6.86506 29.4454C6.84887 29.5256 6.86506 29.5897 6.91363 29.6539Z" fill="#FFFFFF"></path>
<path d="M3.91827 26.5264C5.26214 25.7245 6.12027 24.634 6.96222 23.4953C8.04703 21.9075 8.79182 20.2075 9.14803 18.4594L9.16422 18.3953C9.21279 18.1387 9.05088 18.1066 9.05088 18.1066C9.0185 18.0959 8.99151 18.0906 8.96992 18.0906C8.85658 18.0906 8.75944 18.2189 8.75944 18.2189C8.59753 18.4594 8.43561 18.7321 8.27369 19.0368C7.30222 20.6887 6.10407 22.7415 2.59058 23.3028C2.25056 23.383 2.23438 23.5915 2.23438 23.6877C2.25056 23.8481 2.3801 24.0085 2.52582 24.0085C2.202 24.9547 2.78488 25.8208 3.52968 26.1736V26.1896C3.48111 26.2538 3.4811 26.35 3.51348 26.4302C3.59443 26.5585 3.75636 26.6066 3.91827 26.5264Z" fill="#FFFFFF"></path>
<path d="M7.9175 18.1547C7.9175 18.1547 8.03084 17.9142 7.93369 17.7858C7.83654 17.6575 7.69082 17.6575 7.46414 17.7698C6.33076 18.4274 5.76407 18.716 5.05165 18.716C4.5983 18.716 4.08018 18.5877 3.40015 18.3953C3.33538 18.3739 3.26522 18.3632 3.18966 18.3632C2.97918 18.3632 2.78488 18.4755 2.67154 18.6519C2.55821 18.8604 2.55821 19.0849 2.67154 19.2934C2.33153 19.4538 2.07247 19.7906 1.95913 20.1755C1.87818 20.4802 1.86198 20.9453 2.23438 21.4745L2.21819 21.4906C2.07247 21.5868 2.0077 21.7472 2.05628 21.9075C2.10485 22.0679 2.25057 22.1962 2.42868 22.2123C2.50424 22.2123 2.57979 22.2123 2.65535 22.2123C6.02312 22.2123 7.90131 18.2028 7.9175 18.1547Z" fill="#FFFFFF"></path>
<path d="M11.5605 11.8999C11.7656 11.8999 11.9167 11.8518 12.0139 11.7556C12.1272 11.6433 12.111 11.499 12.111 11.499C12.2567 8.82062 12.5482 7.36119 13.3577 5.46874C13.633 4.81119 13.8273 4.4744 14.4749 3.46402C14.5073 3.42125 14.5127 3.37314 14.4911 3.31968C14.4587 3.22345 14.3454 3.12723 14.1673 3.04704C14.0863 3.01496 13.9568 2.99893 13.8111 2.99893C13.5358 2.99893 13.2444 3.06308 13.0015 3.17534L12.9853 3.19138V3.17534C12.6939 2.37345 11.6901 2.35742 11.5767 2.35742C11.5659 2.35742 11.5605 2.35742 11.5605 2.35742C11.5497 2.35742 11.5389 2.35742 11.5281 2.35742C11.4148 2.35742 10.4109 2.37345 10.1195 3.17534C9.86045 3.06308 9.56901 2.99893 9.30995 2.99893C9.16423 2.99893 9.0347 3.01496 8.93755 3.04704C8.75945 3.12723 8.64611 3.22345 8.61373 3.31968C8.60294 3.37314 8.61373 3.42125 8.64611 3.46402C9.27757 4.4744 9.47186 4.81119 9.76331 5.46874C10.5567 7.36119 10.8643 8.82062 10.9938 11.499C10.9938 11.499 10.9938 11.6433 11.091 11.7556C11.1881 11.8518 11.3446 11.8999 11.5605 11.8999Z" fill="#FFFFFF"></path>
<path d="M13.6492 30.8083C13.9892 30.8083 14.313 30.7121 14.5397 30.5196C14.7988 30.2951 14.6207 29.9904 14.6207 29.9904C12.3701 25.965 12.1758 20.5281 12.1272 18.7479L12.111 18.7158C12.1002 18.3844 11.9167 18.2188 11.5605 18.2188C11.1935 18.2188 11.0046 18.3844 10.9938 18.7158V18.7479C10.9291 20.5281 10.7348 25.965 8.50042 29.9904C8.50042 29.9904 8.30613 30.2951 8.56519 30.5196C8.79186 30.7121 9.13188 30.8083 9.47189 30.8083C9.61761 30.8083 9.76334 30.7924 9.87667 30.7442V30.7603C10.1033 31.6103 11.2691 31.6423 11.4958 31.6423C11.5281 31.6423 11.5497 31.6423 11.5605 31.6423C11.5605 31.6423 11.5767 31.6423 11.6091 31.6423C11.852 31.6423 13.0177 31.6103 13.2282 30.7603V30.7442C13.3416 30.7924 13.4873 30.8083 13.6492 30.8083Z" fill="#FFFFFF"></path>
<path d="M0.469557 14.3216C0.501939 14.343 0.539719 14.3537 0.582895 14.3537C0.728616 14.3537 0.890528 14.1933 0.890528 14.1933C1.8782 13.3593 3.83733 12.381 6.12029 12.381C7.09177 12.381 8.04705 12.5574 8.95376 12.9103C8.95376 12.9103 8.96995 12.9156 9.00233 12.9263C9.11027 12.9584 9.18582 12.953 9.229 12.9103C9.27757 12.8622 9.27758 12.782 9.27758 12.7499V12.7339C9.26679 12.7018 9.26138 12.6644 9.26138 12.6216V12.6056C9.21281 12.1244 8.88899 11.1301 8.33849 10.4565C7.98228 10.0556 7.10795 9.81494 5.97457 9.81494C4.53356 9.81494 2.47727 10.232 1.03625 11.3867C0.566704 11.7716 0.372409 11.9961 0.210497 12.2527C0.178115 12.3008 0.145732 12.4131 0.24288 12.5093C0.264468 12.5307 0.291453 12.5414 0.323836 12.5414C0.388601 12.5414 0.437174 12.5254 0.453365 12.5254C0.46416 12.5147 0.469557 12.5093 0.469557 12.5093C0.259071 12.6857 0.129541 13.0867 0.161924 13.4395C0.178115 13.632 0.24288 13.9046 0.485748 14.049C0.431777 14.1131 0.410189 14.1666 0.420983 14.2093C0.420983 14.2735 0.469557 14.3216 0.469557 14.3216Z" fill="#FFFFFF"></path>
<path d="M0.858162 18.0263C0.890545 18.0424 0.906737 18.0584 0.93912 18.0584C1.00388 18.0584 1.06865 18.0103 1.1658 17.898C2.04012 16.9197 3.78877 15.2839 5.73172 15.2839C6.94606 15.2839 8.04706 15.9093 9.03472 17.1603C9.03472 17.1603 9.09949 17.2405 9.19664 17.2244C9.29378 17.2084 9.32616 17.1122 9.32616 17.1122C9.50427 16.5829 9.58522 14.8829 9.4557 14.3537C9.42331 14.1826 9.36934 14.0543 9.29378 13.9688C9.24521 13.9207 9.03472 13.7122 8.45184 13.5037C7.80419 13.2631 7.09178 13.1348 6.33079 13.1348C3.85354 13.1348 1.42485 14.4178 0.728633 15.6046C0.534338 15.9254 0.469573 16.0537 0.453382 16.1499C0.421 16.2461 0.388618 16.3424 0.453382 16.4065C0.501957 16.4386 0.566722 16.4546 0.615295 16.4225H0.631487L0.615295 16.4386C0.399411 16.8021 0.340044 17.1068 0.437191 17.3527C0.550529 17.6414 0.82578 17.7376 0.82578 17.7537C0.82578 17.7537 0.777207 17.8339 0.777207 17.914C0.788002 17.9568 0.814986 17.9942 0.858162 18.0263Z" fill="#FFFFFF"></path>
<path d="M110.926 0.0961914H111.493V33.9038H110.926V0.0961914Z" fill="#FFFFFF"></path>
</g>
</g>
<defs>
<clipPath id="clip0_2404_12">
<rect width="210" height="34" fill="white"></rect>
</clipPath>
</defs>
</svg>